# xmcd CD database file
#
# Track frame offsets:
#	150
#	19761
#	41630
#	62052
#	90952
#	109571
#	127382
#	131722
#	150109
#	169326
#	193725
#
# Disc length: 2715 seconds
#
# Revision: 1
# Processed by: cddbd v1.5.2PL0 Copyright (c) Steve Scherf et al.
# Submitted via: CDex 1.70beta2
#
DISCID=8e0a990b
DTITLE=Jackiem Joyner - Evolve
DYEAR=2014
DGENRE=Jazz
TTITLE0=Generation Next
TTITLE1=Europa
TTITLE2=Double Bass
TTITLE3=Breathe
TTITLE4=Evolve
TTITLE5=Born To Fly
TTITLE6=Interlude
TTITLE7=Later Tonight
TTITLE8=See Through Me
TTITLE9=Big Step
TTITLE10=A Gentle Walk On Water
EXTD=YEAR: 2014
EXTT0=
EXTT1=
EXTT2=
EXTT3=
EXTT4=
EXTT5=
EXTT6=
EXTT7=
EXTT8=
EXTT9=
EXTT10=
PLAYORDER=
